<?xml version="1.0" encoding="utf-8"?>
<svg aria-label="Comentar" viewBox="0 0 549.091 505.455" xmlns="http://www.w3.org/2000/svg">
                                    <title>Comentar</title>
                                    <g transform="matrix(-0.1, 0, 0, -0.1, 679.517944, 535.173096)" stroke="none">
                                      <path d="M 2893.25 4934.47 C 2623.941 4796.076 2383.879 4611.098 2195.103 4399.505 C 2007.294 4186.286 1858.989 3932.062 1767.88 3663.117 C 1711.976 3494.811 1677.605 3312.652 1667.617 3135.165 C 1658.484 2957.684 1673.072 2770.996 1710.294 2593.933 C 1742.813 2444.093 1796.599 2288.21 1864.898 2144.035 C 1933.653 2000.278 2021.77 1857.763 2120.755 1731.987 L 2143.664 1702.616 L 2013.632 1164.036 C 1974.666 1002.347 1938.963 854.068 1913.099 745.373 C 1887.233 636.598 1868.354 555.803 1868.354 540.923 C 1868.354 516.346 1885.89 484.606 1888.556 480.439 L 1889.928 478.327 L 1891.421 476.556 L 1892.395 475.381 L 1900.046 466.395 L 1906.415 461.897 L 1906.986 461.485 L 1907.224 461.315 L 1909.439 459.728 L 1911.404 458.374 L 1914.53 456.373 L 1918.865 453.882 C 1923.823 451.412 1937.223 446.228 1939.715 445.339 L 1946.356 443.528 L 1949.048 443.226 L 1951.402 442.959 L 1952.62 442.819 L 1954.372 442.639 L 1957.675 442.383 L 1961.533 442.242 C 1966.187 442.319 1978.924 443.486 1980.71 443.676 L 1982.748 444.055 L 1983.283 444.175 C 1986.44 444.884 1993.181 446.755 1996.319 447.78 C 2000.356 449.166 2006.509 451.601 2011.333 453.644 C 2020.04 457.367 2032.855 463.245 2047.673 470.243 C 2076.942 484.119 2119.322 504.836 2170.907 530.528 C 2273.853 581.779 2416.05 654.172 2572.198 735.177 C 2728.671 816.287 2870.848 888.592 2975.191 940.634 C 3075.13 990.38 3094.083 999.578 3110.78 1007.334 C 3111.317 1007.14 3111.26 1007.16 3115.604 1005.598 C 3135.176 998.516 3160.408 989.366 3186.578 980.023 C 3646.894 816.673 4152.433 792.605 4612.403 894.582 C 5071.985 999.922 5511.565 1237.892 5842.573 1579.832 C 5996.567 1741.223 6124.622 1920.034 6219.471 2106.767 C 6313.355 2294.188 6380.34 2502.619 6417.013 2719.724 C 6428.343 2789.955 6434.476 2907.599 6434.476 3019.583 C 6434.476 3131.567 6428.311 3249.554 6416.928 3319.81 C 6380.282 3536.925 6313.214 3745.235 6219.351 3932.658 C 6124.499 4119.385 5996.428 4298.099 5842.429 4459.48 C 5640.298 4669.314 5393.939 4844.017 5129.117 4968.331 C 4864.007 5091.163 4564.963 5171.082 4259.808 5198.942 C 4207.87 5203.222 4128.917 5205.973 4054.306 5206.554 C 3979.527 5207.135 3903.868 5205.544 3859.155 5201.721 L 3856.379 5201.482 C 3678.966 5186.055 3511.753 5157.048 3355.667 5114.312 L 3355.487 5114.312 L 3355.353 5114.274 L 3355.218 5114.236 L 3353.454 5113.733 L 3338.034 5110.616 L 3338.034 5109.396 C 3186.668 5066.279 3040.363 5008.798 2896.927 4936.333 L 2896.878 4936.333 L 2896.664 4936.223 L 2896.447 4936.113 L 2893.25 4934.47 Z M 4363.786 4706.674 C 4495.281 4686.012 4613.643 4657.716 4729.06 4618.993 C 4844.398 4580.732 4949.307 4534.673 5053.838 4476.671 C 5433.919 4269.831 5699.591 3979.998 5848.325 3636.73 C 6001.587 3296.845 6028.569 2931.479 5907.673 2558.125 C 5818.341 2266.862 5644.97 2014.572 5402.951 1805.578 C 5162.089 1593.805 4869.532 1441.847 4535.191 1365.545 C 4443.261 1343.718 4373.893 1330.589 4299.515 1322.817 C 4224.878 1314.654 4148.101 1312.162 4041.684 1312.162 C 3872.026 1312.162 3742.491 1322.36 3605.979 1352.125 C 3468.789 1381.296 3330.843 1428.765 3147.224 1504.882 C 3121.773 1513.567 3077.427 1516.867 3006.822 1492.29 C 2955.814 1469.469 2860.336 1420.75 2686.029 1330.593 C 2588.847 1280.171 2558.999 1264.857 2505.982 1238.015 C 2515.691 1279.637 2523.521 1312.832 2547.563 1411.436 L 2636.276 1781.488 L 2648.726 1833.033 L 2551.326 1942.706 C 2363.226 2150.475 2239.11 2381.05 2174.069 2633.294 C 2106.366 2884.323 2102.353 3135.139 2167.542 3389.43 C 2251.142 3735.118 2446.921 4030.277 2727.999 4263.91 C 3007.509 4501.064 3352.911 4658.154 3744.747 4709.213 C 3826.678 4720.362 3865.055 4725.638 3905.962 4727.685 C 3947.301 4730.1 3991.721 4729.328 4084.701 4727.934 C 4141.202 4726.639 4192.058 4724.183 4239.513 4720.565 C 4286.653 4716.948 4326.887 4712.545 4363.244 4706.753 L 4363.786 4706.674 Z"/>
                                    </g>
                                  </svg>